<svg xmlns="http://www.w3.org/2000/svg" version="1.1" xmlns:xlink="http://www.w3.org/1999/xlink" xmlns:svgjs="http://svgjs.dev/svgjs" width="1000" height="1000" viewBox="0 0 1000 1000"><g transform="matrix(1,0,0,1,-0.14221556886212738,-0.14221556886229791)"><svg viewBox="0 0 334 334" data-background-color="#4b91f1" preserveAspectRatio="xMidYMid meet" height="1000" width="1000" xmlns="http://www.w3.org/2000/svg" xmlns:xlink="http://www.w3.org/1999/xlink"><g id="tight-bounds" transform="matrix(1,0,0,1,0.04749999999998522,0.04750000000001364)"><svg viewBox="0 0 333.90454557049503 333.90454557049503" height="333.90454557049503" width="333.90454557049503"><g><svg></svg></g><g><svg viewBox="0 0 333.90454557049503 333.90454557049503" height="333.90454557049503" width="333.90454557049503"><g><path d="M0 166.952c0-92.205 74.747-166.952 166.952-166.952 92.205 0 166.952 74.747 166.953 166.952 0 92.205-74.747 166.952-166.953 166.953-92.205 0-166.952-74.747-166.952-166.953zM166.952 326.312c88.012 0 159.36-71.348 159.36-159.36 0-88.012-71.348-159.36-159.36-159.36-88.012 0-159.36 71.348-159.36 159.36 0 88.012 71.348 159.36 159.36 159.36z" data-fill-palette-color="tertiary" fill="#ffffff" stroke="transparent"></path><ellipse rx="160.27418187383762" ry="160.27418187383762" cx="166.95227278524752" cy="166.95227278524752" fill="#ffffff" stroke="transparent" stroke-width="0" fill-opacity="1" data-fill-palette-color="tertiary"></ellipse></g><g transform="matrix(1,0,0,1,104.27871096298192,71.17305217166896)"><svg viewBox="0 0 125.3471236445312 191.55844122715712" height="191.55844122715712" width="125.3471236445312"><g><svg viewBox="0 0 125.3471236445312 191.55844122715712" height="191.55844122715712" width="125.3471236445312"><g><svg viewBox="0 0 213.1584412271571 325.7537751857801" height="191.55844122715712" width="125.3471236445312"><g transform="matrix(1,0,0,1,0,182.58765794365968)"><svg viewBox="0 0 213.1584412271571 143.16611724212046" height="143.16611724212046" width="213.1584412271571"><g><svg viewBox="0 0 213.1584412271571 143.16611724212046" height="143.16611724212046" width="213.1584412271571"><g><svg viewBox="0 0 213.1584412271571 143.16611724212046" height="143.16611724212046" width="213.1584412271571"><g transform="matrix(1,0,0,1,0,0)"><svg width="213.1584412271571" viewBox="1.5 -33.70000076293945 50.25 33.75" height="143.16611724212046" data-palette-color="#4b91f1"><path d="M16.6-33.65L16.6-10.2Q16.6-5.35 14.03-2.65 11.45 0.05 6.85 0.05L6.85 0.05Q3.4 0.05 1.5-0.95L1.5-0.95 1.5-7.75Q3.35-6.6 5.35-6.6L5.35-6.6Q8.9-6.6 8.9-10.4L8.9-10.4 8.9-33.65 16.6-33.65ZM34.35 0L34.35 0 22.85 0 22.85-33.7 34.45-33.7Q42.05-33.7 46.9-29.03 51.75-24.35 51.75-17.4L51.75-17.4Q51.75-9.3 46.97-4.65 42.2 0 34.35 0ZM34.2-27.35L34.2-27.35 30.75-27.35 30.75-6.3 34.25-6.3Q38.9-6.3 41.42-9.2 43.95-12.1 43.95-17.4L43.95-17.4Q43.95-21.9 41.4-24.63 38.85-27.35 34.2-27.35Z" opacity="1" transform="matrix(1,0,0,1,0,0)" fill="#4b91f1" class="undefined-text-0" data-fill-palette-color="quaternary" id="text-0"></path></svg></g></svg></g></svg></g></svg></g><g transform="matrix(1,0,0,1,40.713262274387006,0)"><svg viewBox="0 0 131.7319166783831 148.78957364960885" height="148.78957364960885" width="131.7319166783831"><g><svg xmlns="http://www.w3.org/2000/svg" data-name="Glyph Icon" viewBox="7.210000038146973 4 49.58000183105469 56" x="0" y="0" height="148.78957364960885" width="131.7319166783831" class="icon-icon-0" data-fill-palette-color="quaternary" id="icon-0"><path d="M49.13 20.84l-16-9.26V4L55.7 17.05ZM32 50.52L16 41.26V22.74l16-9.26 16 9.26V41.26ZM30.91 11.58l-16 9.26L8.3 17.05 30.91 4ZM13.77 22.74V41.26L7.21 45.05V19Zm1.1 20.42l16 9.26V60L8.3 47Zm18.22 9.26l16-9.26L55.7 47 33.09 60ZM50.23 41.26V22.74L56.79 19v26.1Z" fill="#4b91f1" data-fill-palette-color="quaternary"></path></svg></g></svg></g><g></g></svg></g></svg></g></svg></g></svg></g><defs></defs></svg><rect width="333.90454557049503" height="333.90454557049503" fill="none" stroke="none" visibility="hidden"></rect></g></svg></g></svg>